<svg width="1200" height="800" viewBox="0 0 1200 800" fill="none" xmlns="http://www.w3.org/2000/svg">
  <rect width="1200" height="800" fill="#111111"/>
  <rect x="60" y="60" width="1080" height="680" rx="32" fill="url(#paint0_linear)"/>
  <rect x="120" y="130" width="360" height="22" rx="11" fill="#2A2A2A"/>
  <rect x="120" y="176" width="260" height="18" rx="9" fill="#222222"/>
  <rect x="120" y="258" width="420" height="260" rx="24" fill="#171717" stroke="#2E2E2E"/>
  <path d="M248 440L314 360L366 410L420 336L498 440H248Z" fill="#2B2B2B"/>
  <circle cx="336" cy="330" r="28" fill="#FFD700" fill-opacity="0.75"/>
  <rect x="590" y="258" width="490" height="28" rx="14" fill="#2A2A2A"/>
  <rect x="590" y="308" width="430" height="18" rx="9" fill="#232323"/>
  <rect x="590" y="342" width="390" height="18" rx="9" fill="#232323"/>
  <rect x="590" y="376" width="410" height="18" rx="9" fill="#232323"/>
  <rect x="590" y="440" width="120" height="38" rx="19" fill="#FFD700" fill-opacity="0.18" stroke="#FFD700" stroke-opacity="0.4"/>
  <rect x="726" y="440" width="120" height="38" rx="19" fill="#1B1B1B" stroke="#333333"/>
  <rect x="862" y="440" width="120" height="38" rx="19" fill="#1B1B1B" stroke="#333333"/>
  <rect x="998" y="440" width="82" height="38" rx="19" fill="#1B1B1B" stroke="#333333"/>
  <rect x="120" y="584" width="240" height="84" rx="22" fill="#151515" stroke="#242424"/>
  <rect x="390" y="584" width="240" height="84" rx="22" fill="#151515" stroke="#242424"/>
  <rect x="660" y="584" width="240" height="84" rx="22" fill="#151515" stroke="#242424"/>
  <defs>
    <linearGradient id="paint0_linear" x1="150" y1="110" x2="1020" y2="700" gradientUnits="userSpaceOnUse">
      <stop stop-color="#171717"/>
      <stop offset="1" stop-color="#0F0F0F"/>
    </linearGradient>
  </defs>
</svg>
